<?xml version="1.0" encoding="UTF-8"?>
<svg id="_图层_2" data-name="图层 2" xmlns="http://www.w3.org/2000/svg" viewBox="0 0 6.5 11.54">
  <defs>
    <style>
      .cls-1 {
        fill: #4285f4;
      }
    </style>
  </defs>
  <g id="_图层_1-2" data-name="图层 1">
    <path class="cls-1" d="M.72,11.54c-.19,0-.37-.08-.51-.21-.14-.14-.21-.32-.21-.51s.08-.38,.21-.51L4.75,5.77,.21,1.23c-.14-.14-.21-.32-.21-.51S.08,.35,.21,.21s.32-.21,.51-.21,.38,.08,.51,.21L6.28,5.26c.14,.14,.21,.32,.21,.51s-.08,.37-.21,.51L1.23,11.33c-.14,.14-.32,.21-.51,.21Z"/>
  </g>
</svg>