<?xml version="1.0" encoding="UTF-8"?>
<svg id="_图层_2" data-name="图层 2" xmlns="http://www.w3.org/2000/svg" viewBox="0 0 141.67 33.89">
  <defs>
    <style>
      .cls-1 {
        fill: #fabd05;
      }

      .cls-2 {
        fill: #ea4336;
      }

      .cls-3 {
        fill: #4285f4;
      }
    </style>
  </defs>
  <g id="_图层_1-2" data-name="图层 1">
    <g>
      <g id="cfVEAz.tif">
        <g>
          <path class="cls-2" d="M9.21,2.33c0,2.03,0,3.62,0,5.22,0,2.55-.02,5.1,0,7.65,.02,1.99,.7,3.67,2.42,4.83,.13,.09,.26,.21,.34,.34,.13,.21,.22,.44,.4,.82-1.82,1.08-3.62,2.17-5.44,3.23-.52,.3-1.1,.58-1.68,.7-1.83,.39-3.28-.44-4.35-2.6-.44-.89-.71-1.93-.75-2.92-.11-2.3-.24-4.57-.06-6.91,.21-2.76,.76-5.02,2.98-6.59,1.85-1.31,3.87-2.39,6.14-3.77Z"/>
          <path class="cls-1" d="M11.24,11.1c0-1.17,0-2.05,0-2.94,0-1.4,.03-2.8,0-4.19-.09-3.09,2.74-4.62,5.17-3.71,1.48,.55,2.92,1.26,4.28,2.07,2.3,1.37,4.66,2.71,6.73,4.39,1.05,.85,1.91,2.35,2.15,3.69,.37,1.99,.12,4.09,.12,6.15,0,.19-.11,.37-.19,.64-.41-.12-.79-.16-1.09-.33-3.12-1.79-6.21-3.63-9.35-5.39-.99-.56-2.08-.98-3.15-1.38-1.57-.59-2.95,.08-4.67,1Z"/>
          <path class="cls-3" d="M6.52,27.03c1.54-.96,2.83-1.78,4.13-2.56,2.59-1.56,5.23-3.03,7.77-4.67,1.21-.78,1.76-2.11,2.07-3.52,.33-1.48,.38-1.51,1.74-.78,1.91,1.02,3.81,2.04,5.66,3.17,1.08,.66,1.56,3.15,.75,4.16-.84,1.06-1.83,2.08-2.95,2.84-2.16,1.46-4.48,2.68-6.69,4.09-2.66,1.7-5.84,1.64-8.44-.2-1.22-.86-2.53-1.58-4.05-2.53Z"/>
        </g>
      </g>
      <g>
        <path class="cls-3" d="M80.72,10.54c.3-.24,.58-.48,.89-.71,1.68-1.27,3.57-1.62,5.62-1.28,2.93,.49,4.87,2.25,6.15,4.82,.6,1.22,.85,2.55,.93,3.9,.1,1.68-.05,3.35-.64,4.94-.99,2.71-2.74,4.68-5.57,5.57-1.58,.49-3.18,.54-4.78,.14-.85-.21-1.61-.61-2.26-1.21-.11-.1-.24-.18-.44-.34-.01,.26-.03,.42-.03,.58,0,2.14,0,4.28,0,6.42,0,.38-.1,.52-.5,.51-1.29-.02-2.58-.02-3.87,0-.36,0-.5-.08-.5-.47,.01-8.02,0-16.04,0-24.06,0-.37,.1-.5,.48-.49,1.29,.02,2.58,.02,3.87,0,.43,0,.54,.15,.52,.54-.03,.36,0,.73,0,1.09,.04,.02,.08,.03,.12,.05Zm3.51,2.24c-1.07-.04-2.14,.32-2.93,1.03-.32,.29-.71,.54-.71,1.09,.02,2.27,0,4.53,.02,6.8,0,.23,.11,.5,.25,.69,.54,.73,1.31,1.09,2.18,1.26,2.5,.51,4.75-.87,5.44-3.31,.33-1.17,.38-2.34,.19-3.53-.35-2.15-1.89-4.05-4.44-4.03Z"/>
        <path class="cls-3" d="M62.32,8.43c3.61,.02,6.37,1.25,8.28,4.09,1.38,2.05,1.73,4.36,1.53,6.77-.13,1.6-.53,3.12-1.38,4.49-1.11,1.77-2.6,3.07-4.6,3.76-2.32,.81-4.68,.87-7.01,.15-2.57-.79-4.42-2.47-5.47-4.95-.96-2.28-1-4.64-.49-7.04,.5-2.33,1.67-4.21,3.61-5.6,1.72-1.23,3.69-1.66,5.53-1.68Zm4.69,9.56c-.04-.32-.11-.94-.2-1.56-.29-1.94-1.34-3.36-3.28-3.73-1.89-.36-3.92,.25-4.87,2.2-.56,1.14-.7,2.35-.64,3.59,.04,.8,.09,1.63,.32,2.38,.48,1.58,1.51,2.65,3.19,3,1.72,.36,3.66-.17,4.62-1.88,.65-1.16,.82-2.42,.86-4.01Z"/>
        <path class="cls-3" d="M131.73,23.78h9.64c-.04,.18-.04,.29-.09,.38-.51,1.06-1.03,2.11-1.53,3.17-.15,.31-.35,.41-.69,.41-5.05-.01-10.1,0-15.14,0-.15,0-.3-.02-.58-.03,3.3-4.9,6.53-9.72,9.77-14.53-.02-.05-.04-.09-.06-.14h-8.98c.43-.96,.81-1.81,1.2-2.65,.17-.37,.38-.73,.51-1.12,.11-.32,.3-.4,.61-.4,1.52,0,3.03,0,4.55,0,3.36,0,6.72,0,10.08,0,.18,0,.35,.02,.66,.04-3.39,4.97-6.72,9.84-10.05,14.72,.03,.05,.07,.1,.1,.15Z"/>
        <path class="cls-3" d="M103.74,23.78h9.71c-.24,.51-.42,.92-.61,1.33-.34,.71-.7,1.42-1.03,2.14-.16,.34-.35,.5-.76,.5-5.03-.02-10.07-.01-15.1-.01-.16,0-.32-.02-.58-.05,3.29-4.89,6.52-9.7,9.76-14.51-.02-.05-.04-.09-.05-.14h-8.98c.35-.79,.64-1.45,.94-2.12,.25-.55,.54-1.09,.76-1.66,.13-.34,.33-.41,.65-.4,.98,0,1.96,0,2.94,0,3.89,0,7.77,0,11.66,0,.18,0,.36,.02,.67,.03-3.39,4.97-6.72,9.84-10.05,14.72l.09,.15Z"/>
        <path class="cls-3" d="M47.88,18.2c0,2.99,0,5.98,0,8.97,0,.57,0,.57-.57,.57-1.43,0-2.86-.01-4.3,0-.41,0-.5-.13-.49-.51,0-5.99,0-11.99,0-17.98,0-.67,0-.67-.68-.67-1.83,0-3.66,0-5.49,0-.55,0-.58-.03-.58-.57,0-.94,.02-1.87,0-2.81-.01-.4,.14-.5,.51-.5,3.69,.01,7.37,0,11.06,0,2.24,0,4.48,.01,6.72,0,.43,0,.57,.12,.56,.55-.03,.91,0,1.81,0,2.72,0,.59-.02,.61-.63,.61-1.83,0-3.66,0-5.49,0-.57,0-.6,.04-.6,.6,0,3,0,6.01,0,9.01Z"/>
        <path class="cls-3" d="M121.12,18.28c0,2.96,0,5.92,0,8.88,0,.57,0,.57-.56,.57-1.33,0-2.66,0-4,0-.37,0-.52-.1-.52-.51,.01-5.95,.01-11.9,0-17.85,0-.43,.17-.53,.55-.52,1.33,.02,2.66,.02,4,0,.41,0,.54,.13,.54,.54-.01,2.96,0,5.92,0,8.88Z"/>
        <path class="cls-3" d="M118.55,7.77c-1.48,0-2.67-1.18-2.69-2.65-.02-1.54,1.19-2.82,2.67-2.82,1.53,0,2.76,1.24,2.76,2.78,0,1.5-1.21,2.69-2.74,2.69Z"/>
      </g>
    </g>
  </g>
</svg>