<?xml version="1.0" encoding="UTF-8"?>
<svg id="_图层_2" data-name="图层 2" xmlns="http://www.w3.org/2000/svg" xmlns:xlink="http://www.w3.org/1999/xlink" viewBox="0 0 642.69 518.11">
  <defs>
    <style>
      .cls-1, .cls-2, .cls-3 {
        fill: #fff;
      }

      .cls-4 {
        fill: #cfe5ff;
      }

      .cls-2 {
        opacity: .55;
        stroke: #fff;
        stroke-miterlimit: 10;
      }

      .cls-5 {
        fill: url(#_未命名的渐变_7);
        opacity: .54;
      }

      .cls-3 {
        stroke: #cfe5ff;
        stroke-linecap: round;
        stroke-linejoin: round;
        stroke-width: 3.87px;
      }

      .cls-6 {
        fill: url(#_未命名的渐变_5);
      }
    </style>
    <linearGradient id="_未命名的渐变_5" data-name="未命名的渐变 5" x1="321.35" y1="518.11" x2="321.35" y2="234.41" gradientUnits="userSpaceOnUse">
      <stop offset="0" stop-color="#fff" stop-opacity="0"/>
      <stop offset="1" stop-color="#d9e9f9" stop-opacity=".3"/>
    </linearGradient>
    <linearGradient id="_未命名的渐变_7" data-name="未命名的渐变 7" x1="301.72" y1="-3816.97" x2="301.72" y2="-3815.19" gradientTransform="translate(-35535.9 -231341.51) scale(118.85 -60.7)" gradientUnits="userSpaceOnUse">
      <stop offset="0" stop-color="#cadeff" stop-opacity="0"/>
      <stop offset="1" stop-color="#a6ceff" stop-opacity=".8"/>
    </linearGradient>
  </defs>
  <g id="_图层_1-2" data-name="图层 1">
    <g>
      <ellipse class="cls-6" cx="321.35" cy="376.26" rx="321.35" ry="141.85"/>
      <path id="_矩形" data-name="矩形" class="cls-5" d="M206.58,238.52h233.8c5.17,0,9.37,4.13,9.37,9.22v108.57c0,5.09-4.19,9.22-9.37,9.22H206.58c-5.17,0-9.37-4.13-9.37-9.22v-108.57c0-5.09,4.19-9.22,9.37-9.22Z"/>
    </g>
    <g>
      <polygon class="cls-4" points="235.11 83.34 411.47 83.34 449.75 175.42 449.75 264.37 196.81 264.37 196.81 175.42 235.11 83.34"/>
      <path class="cls-1" d="M243.28,99.11h160.42l26.9,66.86h-43.95c-6.26,0-11.34,5.08-11.34,11.34v15.16h-100.72v-15.79c0-6.26-5.08-11.34-11.34-11.34h-43.68l23.7-66.23Z"/>
    </g>
    <path class="cls-3" d="M422.66,1.94s-7.62,36.78-23.41,26.08c-10.34-7.01,29.86-17.21,16,5.19-3.97,6.42-12.67,15.27-28.41,8.36"/>
    <path class="cls-2" d="M323.28,208.2c-1.29,0-2.46,.71-3,1.82l-5.2,10.56-11.96,1.74c-1.23,.18-2.25,1-2.65,2.12-.39,1.13-.1,2.37,.77,3.21l8.77,8.56-2.03,11.87c-.21,1.2,.32,2.4,1.36,3.1,.57,.38,1.24,.58,1.91,.58,.55,0,1.11-.13,1.61-.39l10.43-5.49,10.43,5.49c.5,.26,1.05,.39,1.6,.39,.67,0,1.34-.2,1.91-.58,1.04-.7,1.57-1.9,1.36-3.1l-2.03-11.87,8.77-8.56c.87-.85,1.17-2.09,.77-3.21-.4-1.12-1.42-1.94-2.65-2.12l-11.96-1.74-5.2-10.56c-.54-1.11-1.72-1.82-3.01-1.82h0Z"/>
  </g>
</svg>