<?xml version="1.0" encoding="UTF-8"?>
<svg id="_图层_2" data-name="图层 2" xmlns="http://www.w3.org/2000/svg" viewBox="0 0 10.5 10.02">
  <defs>
    <style>
      .cls-1 {
        fill: #a7a7a8;
      }
    </style>
  </defs>
  <g id="_图层_1-2" data-name="图层 1">
    <path class="cls-1" d="M5.57,.2l1.35,2.74c.05,.1,.15,.18,.26,.19l3.02,.44c.29,.04,.4,.4,.19,.6l-2.19,2.13c-.08,.08-.12,.2-.1,.31l.52,3.01c.05,.29-.25,.51-.51,.37l-2.7-1.42c-.1-.05-.22-.05-.33,0l-2.7,1.42c-.26,.14-.56-.08-.51-.37l.52-3.01c.02-.11-.02-.23-.1-.31L.11,4.16c-.21-.2-.09-.56,.19-.6l3.02-.44c.11-.02,.21-.09,.26-.19L4.94,.2c.13-.26,.5-.26,.63,0Z"/>
  </g>
</svg>