<svg width="18" height="16" viewBox="0 0 18 16" fill="none" xmlns="http://www.w3.org/2000/svg">
<path fill-rule="evenodd" clip-rule="evenodd" d="M4.10178 1.64599C4.15403 1.59943 4.2161 1.56249 4.28444 1.53728C4.35278 1.51207 4.42604 1.4991 4.50003 1.4991C4.57402 1.4991 4.64728 1.51207 4.71562 1.53728C4.78396 1.56249 4.84603 1.59943 4.89828 1.64599L11.6483 7.64599C11.7007 7.69244 11.7422 7.74761 11.7706 7.80836C11.7989 7.86911 11.8135 7.93423 11.8135 7.99999C11.8135 8.06576 11.7989 8.13088 11.7706 8.19163C11.7422 8.25237 11.7007 8.30755 11.6483 8.35399L4.89828 14.354C4.79266 14.4479 4.6494 14.5006 4.50003 14.5006C4.35066 14.5006 4.2074 14.4479 4.10178 14.354C3.99616 14.2601 3.93682 14.1328 3.93682 14C3.93682 13.8672 3.99616 13.7399 4.10178 13.646L10.4547 7.99999L4.10178 2.35399C4.0494 2.30755 4.00783 2.25237 3.97948 2.19163C3.95112 2.13088 3.93652 2.06576 3.93652 1.99999C3.93652 1.93423 3.95112 1.86911 3.97948 1.80836C4.00783 1.74761 4.0494 1.69244 4.10178 1.64599Z" fill="#228AFD"/>
<path fill-rule="evenodd" clip-rule="evenodd" d="M8.60178 1.64599C8.65403 1.59943 8.7161 1.56249 8.78444 1.53728C8.85278 1.51207 8.92604 1.4991 9.00003 1.4991C9.07402 1.4991 9.14728 1.51207 9.21562 1.53728C9.28395 1.56249 9.34603 1.59943 9.39828 1.64599L16.1483 7.64599C16.2007 7.69244 16.2422 7.74761 16.2706 7.80836C16.2989 7.86911 16.3135 7.93423 16.3135 7.99999C16.3135 8.06576 16.2989 8.13088 16.2706 8.19163C16.2422 8.25237 16.2007 8.30755 16.1483 8.35399L9.39828 14.354C9.29266 14.4479 9.1494 14.5006 9.00003 14.5006C8.85066 14.5006 8.7074 14.4479 8.60178 14.354C8.49616 14.2601 8.43682 14.1328 8.43682 14C8.43682 13.8672 8.49616 13.7399 8.60178 13.646L14.9547 7.99999L8.60178 2.35399C8.54939 2.30755 8.50783 2.25237 8.47948 2.19163C8.45112 2.13088 8.43652 2.06576 8.43652 1.99999C8.43652 1.93423 8.45112 1.86911 8.47948 1.80836C8.50783 1.74761 8.54939 1.69244 8.60178 1.64599Z" fill="#228AFD"/>
</svg>
