<?xml version="1.0" encoding="UTF-8"?>
<svg id="_图层_2" data-name="图层 2" xmlns="http://www.w3.org/2000/svg" viewBox="0 0 20.52 19.98">
  <g id="_图层_1-2" data-name="图层 1">
    <g>
      <path  d="M20.14,12.48h-4.87c-.33,0-.62,.22-.7,.51l-.8,2.6H6.75l-.8-2.6c-.11-.29-.37-.51-.7-.51H.38c-.22,0-.37,.15-.37,.37v5.67c0,.8,.66,1.46,1.46,1.46H19.04c.8,0,1.46-.66,1.46-1.46v-5.67c0-.18-.15-.37-.37-.37h0Z"/>
      <path  d="M20.5,12.62L18.05,.84c-.11-.48-.55-.84-1.02-.84H3.53c-.51,0-.95,.37-1.02,.84L.01,12.62c-.04,.18,0,.37,.11,.55,.11,.15,.26,.26,.44,.29h.15c.15,0,.26-.04,.4-.11,.15-.11,.26-.26,.29-.44L3.78,1.43h12.92l2.41,11.49c.07,.37,.48,.62,.84,.55,.18-.04,.33-.15,.44-.29,.11-.18,.15-.37,.11-.55Z"/>
      <path  d="M12.78,7.24l-1.79,1.79V4.72c0-.4-.33-.7-.7-.7-.4,0-.7,.33-.7,.7v4.32l-1.79-1.79c-.29-.29-.73-.29-.99,0-.29,.29-.29,.73,0,.99l3,3c.07,.07,.15,.11,.22,.15,.04,0,.07,.04,.11,.04h.37s.07-.04,.11-.04c.07-.04,.15-.07,.22-.15l3-3c.29-.29,.29-.73,0-.99-.37-.29-.8-.29-1.06,0Z"/>
    </g>
  </g>
</svg>