<?xml version="1.0" encoding="UTF-8"?>
<svg id="_图层_2" data-name="图层 2" xmlns="http://www.w3.org/2000/svg" viewBox="0 0 20 20.64">
  <defs>
    <style>
      .cls-1 {
        fill: #4285f4;
      }
    </style>
  </defs>
  <g id="_图层_1-2" data-name="图层 1">
    <g>
      <path class="cls-1" d="M19.36,4.23L15.45,.27c-.14-.18-.36-.27-.59-.27s-.41,.09-.59,.27l-3.82,3.95c-.32,.36-.32,.86,0,1.23l3.86,3.95,.09,.09c.32,.27,.77,.23,1.05-.09l3.86-3.95c.36-.32,.36-.86,.05-1.23Zm-4.45,3.5l-2.82-2.91,2.82-2.91,2.82,2.91-2.82,2.91Zm-6.77,3.5H1.05c-.59,0-1.05,.5-1.05,1.09v7.18c0,.59,.45,1.05,1.05,1.09h7.09c.59,0,1.05-.5,1.05-1.09v-7.23c0-.59-.45-1.05-1.05-1.05Zm-.55,7.73H1.59v-6.14H7.64v6.14h-.05ZM8.14,.73H1.05C.45,.73,0,1.18,0,1.77v7.23c0,.59,.45,1.05,1.05,1.09h7.09c.59,0,1.05-.5,1.05-1.09V1.77c0-.59-.45-1.05-1.05-1.05Zm-.55,7.77H1.59V2.32H7.64v6.18h-.05Zm3.73,2.73h.59c.45,0,.82,.36,.82,.82s-.36,.82-.82,.82h-.09v6.14h6.05v-.18c0-.45,.36-.77,.77-.77,.45,0,.77,.36,.77,.77v.73c0,.59-.45,1.05-1.05,1.09h-7.05c-.59,0-1.05-.5-1.05-1.09v-7.27c0-.59,.45-1.05,1.05-1.05h0Z"/>
      <path class="cls-1" d="M14.32,13.09h5c.36,0,.68,.32,.68,.68s-.32,.68-.68,.68h-5c-.36,0-.68-.32-.68-.68s.32-.68,.68-.68Zm2.27,2.73h2.73c.36,0,.68,.32,.68,.68s-.32,.68-.68,.68h-2.73c-.36,0-.68-.32-.68-.68s.32-.68,.68-.68Z"/>
    </g>
  </g>
</svg>