<?xml version="1.0" encoding="UTF-8"?>
<svg id="_图层_2" data-name="图层 2" xmlns="http://www.w3.org/2000/svg" viewBox="0 0 26.23 18.01">
  <defs>
    <style>
      .cls-1 {
        fill: #4285f4;
      }
    </style>
  </defs>
  <g id="_图层_1-2" data-name="图层 1">
    <path class="cls-1" d="M18.02,.3l7.89,7.89c.44,.43,.44,1.14,0,1.57,0,0,0,0,0,0l-7.89,7.89c-.42,.45-1.12,.48-1.58,.07-.45-.42-.48-1.12-.07-1.58,.02-.02,.04-.04,.06-.06l5.98-5.98H1.07C.46,10.06-.02,9.54,0,8.93c.02-.58,.49-1.05,1.07-1.07H22.42L16.44,1.87c-.42-.45-.39-1.16,.07-1.58,.43-.39,1.09-.39,1.51,0Z"/>
  </g>
</svg>