<svg width="27" height="27" viewBox="0 0 27 27" fill="none" xmlns="http://www.w3.org/2000/svg">
<path d="M1.87207 6.17072C1.87207 6.55672 2.03094 6.94037 2.30386 7.21329C2.57681 7.48621 2.96046 7.64511 3.34646 7.64511C3.73259 7.64511 4.11625 7.48621 4.38917 7.21329C4.66209 6.94037 4.82098 6.55672 4.82098 6.17072C4.82098 5.78469 4.66209 5.40106 4.38917 5.12798C4.11625 4.85506 3.73259 4.69619 3.34646 4.69619C2.96043 4.69619 2.57681 4.85506 2.30386 5.12798C2.03097 5.40106 1.87207 5.78472 1.87207 6.17072Z" fill="#777777"/>
<path d="M1.68542 13.4777C1.68542 13.8642 1.84454 14.2482 2.1177 14.5215C2.39102 14.7947 2.775 14.9538 3.16149 14.9538C3.54786 14.9538 3.93198 14.7947 4.20514 14.5215C4.47841 14.2482 4.63744 13.8642 4.63744 13.4777C4.63744 13.0914 4.47841 12.7073 4.20514 12.4341C3.93198 12.1608 3.54786 12.0018 3.16149 12.0018C2.77497 12.0018 2.391 12.1608 2.1177 12.4341C1.84454 12.7073 1.68542 13.0913 1.68542 13.4777Z" fill="#777777"/>
<path d="M1.68542 20.8221C1.68542 21.2086 1.84454 21.5926 2.1177 21.8659C2.39102 22.1391 2.775 22.2981 3.16149 22.2981C3.54786 22.2981 3.93198 22.1391 4.20514 21.8659C4.47841 21.5926 4.63744 21.2086 4.63744 20.8221C4.63744 20.4357 4.47841 20.0517 4.20514 19.7784C3.93198 19.5052 3.54786 19.3461 3.16149 19.3461C2.77497 19.3461 2.391 19.5052 2.1177 19.7784C1.84454 20.0517 1.68542 20.4358 1.68542 20.8221Z" fill="#777777"/>
<path d="M25.2942 6.10226C25.2942 6.87999 24.7172 7.50831 24.0033 7.50831H8.69851C7.98463 7.50831 7.40601 6.87834 7.40601 6.10226C7.40601 5.32608 7.98309 4.69622 8.69851 4.69622H24.0017C24.7172 4.69619 25.2942 5.32605 25.2942 6.10226Z" fill="#777777"/>
<path d="M25.2942 13.4109C25.2942 14.187 24.7172 14.817 24.0033 14.817H8.69851C7.98463 14.817 7.40601 14.187 7.40601 13.4109C7.40601 12.6332 7.98309 12.0049 8.69851 12.0049H24.0017C24.7172 12.0033 25.2942 12.6332 25.2942 13.4109Z" fill="#777777"/>
<path d="M25.2942 20.7507C25.2942 21.5283 24.7172 22.1583 24.0033 22.1583H8.69851C7.98463 22.1583 7.40601 21.5283 7.40601 20.7507C7.40601 19.976 7.98309 19.3462 8.69851 19.3462H24.0017C24.7172 19.3462 25.2942 19.976 25.2942 20.7507Z" fill="#777777"/>
</svg>
